HIERARCHY
ROOT simHips
{
  OFFSET -279.764 94.6628 142.677
  CHANNELS 6 Xposition Yposition Zposition Zrotation Xrotation Yrotation
  JOINT simSpine
  {
    OFFSET -0.000355721 21.3001 -0.016921
    CHANNELS 3 Zrotation Xrotation Yrotation
    JOINT simLeftArm
    {
      OFFSET 13.5181 21.3012 0
      CHANNELS 3 Zrotation Xrotation Yrotation
      JOINT simLeftForeArm
      {
        OFFSET 24.5783 0 0
        CHANNELS 3 Zrotation Xrotation Yrotation
        JOINT simLeftHand
        {
          OFFSET 24.5783 0 0
          CHANNELS 3 Zrotation Xrotation Yrotation
          End Site
          {
            OFFSET 7.32568 1.52588e-005 0.0169305
          }
        }
      }
    }
    JOINT simHead
    {
      OFFSET 0 27.4458 -0.00489235
      CHANNELS 3 Zrotation Xrotation Yrotation
      End Site
      {
        OFFSET 0 0 0
      }
    }
    JOINT simRightArm
    {
      OFFSET -13.5174 21.3012 0
      CHANNELS 3 Zrotation Xrotation Yrotation
      JOINT simRightForeArm
      {
        OFFSET -24.5783 0 0
        CHANNELS 3 Zrotation Xrotation Yrotation
        JOINT simRightHand
        {
          OFFSET -24.5783 0 0
          CHANNELS 3 Zrotation Xrotation Yrotation
          End Site
          {
            OFFSET -7.32568 1.52588e-005 0.0169305
          }
        }
      }
    }
  }
  JOINT simRightUpLeg
  {
    OFFSET -8.44614 -9.41038 0.835684
    CHANNELS 3 Zrotation Xrotation Yrotation
    JOINT simRightLeg
    {
      OFFSET 0 -40.9639 0
      CHANNELS 3 Zrotation Xrotation Yrotation
      JOINT simRightFoot
      {
        OFFSET 0 -40.9639 0
        CHANNELS 3 Zrotation Xrotation Yrotation
        End Site
        {
          OFFSET 0.50614 -9.67405 14.6709
        }
      }
    }
  }
  JOINT simLeftUpLeg
  {
    OFFSET 8.44614 -9.41038 0.835684
    CHANNELS 3 Zrotation Xrotation Yrotation
    JOINT simLeftLeg
    {
      OFFSET 0 -40.9639 0
      CHANNELS 3 Zrotation Xrotation Yrotation
      JOINT simLeftFoot
      {
        OFFSET 0 -40.9639 0
        CHANNELS 3 Zrotation Xrotation Yrotation
        End Site
        {
          OFFSET -0.50614 -9.67405 14.6709
        }
      }
    }
  }
}
MOTION
Frames:	23
Frame Time:	0.0333333
160.22 99.8843 -477.79 0 0.000155003 -0 -0.000236084 0 -0.00108515 3.41509e-006 -2.73208e-005 -5.97641e-006 0.000244779 -0.000563396 1.15408e-005 -1.10678e-006 3.41509e-006 -1.02601e-005 1.70787e-006 3.41509e-006 -0.00534312 1.36604e-005 -1.28066e-006 1.70755e-005 -1.53523e-005 0.00729357 -0.000122902 3.9546e-010 4.96256e-006 -0.00455754 -0.251802 -4.34851 0.0143263 0.0024944 16.634 -0.000373377 0.254579 -11.3411 0.0216102 2.73858 -4.60836 -0.138154 -0.00220903 15.7951 -0.0925236 -2.78093 -10.2438 -0.318888 
160.23 99.8842 -477.807 0.00644767 0.000155003 0.02353 -0.000235967 0.00614552 -0.00108515 0.0439926 0.0963428 0.0211281 0.000244759 -0.000563396 -0.00203436 -0.00913061 0.0769156 -0.0138096 0.0106971 -0.00878097 -0.00534312 -0.0024112 0.0555863 -0.0841912 0.00506366 0.00729357 -0.000122902 0.0268214 0.133909 -0.00455756 -0.262859 -4.38648 0.00274927 -0.00625648 16.6643 -0.000373436 0.268557 -11.3411 0.0216102 2.72299 -4.62259 -0.149925 -0.000447302 15.7937 -0.0990043 -2.77092 -10.2356 -0.318879 
160.247 99.8841 -477.834 0.0179576 0.00730815 0.0644229 0.00458175 0.0158246 -0.00108515 0.149648 0.28102 0.0704026 0.00217938 -0.000563396 -0.0116613 -0.0314318 0.20214 -0.0310585 0.0168509 -0.0540705 -0.00534312 -0.0395945 0.150155 -0.232161 0.0148144 0.00729357 -0.000122902 0.0974305 0.325313 0.00122065 -0.285322 -3.9195 -0.0230019 -0.0157641 16.1772 -0.000372502 0.287303 -11.3411 0.0216102 2.69535 -4.65024 -0.169616 0.0027083 15.7852 -0.110656 -2.75618 -10.2175 -0.318861 
160.261 99.884 -477.86 0.0316257 0.0188416 0.11318 0.00977643 0.0248347 -0.00108515 0.287719 0.451644 0.138233 0.0110948 -0.000563396 -0.0487031 -0.00552452 0.299589 -0.0384071 0.0168789 -0.0934718 -0.00236725 -0.111544 0.233983 -0.393492 -0.0053139 0.00416683 -0.000122902 0.187382 0.451196 0.0209778 -0.309591 -4.19723 -0.0617037 -0.0219206 16.4316 -0.00370838 0.299546 -11.3411 0.0216102 2.66667 -4.68231 -0.199483 0.00561426 15.772 -0.121437 -2.74279 -10.1942 -0.318838 
160.271 99.8838 -477.886 0.0434318 0.0383009 0.172825 0.0150002 0.0286309 -0.00478219 0.428421 0.579096 0.201256 0.0488403 -0.00573799 -0.102465 0.069377 0.343568 -0.0407048 0.0323994 -0.11249 0.0118186 -0.216552 0.274118 -0.575105 -0.036 -0.00270047 -0.000122902 0.222783 0.508679 0.0355077 -0.3299 -4.33291 -0.10925 -0.0283416 16.5355 -0.00869847 0.306574 -11.3411 0.0174292 2.64479 -4.72428 -0.241704 0.0013149 15.7597 -0.129854 -2.72968 -10.1694 -0.321549 
160.28 99.8836 -477.91 0.0537272 0.0637389 0.231801 0.019196 0.0305899 -0.0113869 0.550931 0.658744 0.256838 0.122619 -0.0174439 -0.156731 0.161379 0.356931 -0.0349817 0.0700603 -0.0980484 0.0416558 -0.335489 0.289164 -0.746375 -0.0734209 -0.0109202 -0.000122902 0.191873 0.539573 0.0269629 -0.346652 -4.24533 -0.146602 -0.0324048 16.408 -0.0203578 0.308956 -11.338 0.00857675 2.62819 -4.77504 -0.279244 -0.00625917 15.7502 -0.13995 -2.71766 -10.1435 -0.328122 
160.288 99.8834 -477.93 0.0635731 0.0898496 0.279804 0.0215251 0.0323961 -0.0197347 0.658828 0.707818 0.314564 0.206922 -0.0313176 -0.205644 0.251628 0.345327 -0.0390308 0.114189 -0.0456221 0.0590474 -0.455407 0.300335 -0.888032 -0.113022 -0.0194998 -0.000122902 0.132411 0.536712 0.00233052 -0.360937 -4.29665 -0.16847 -0.0355177 16.4162 -0.0357164 0.303712 -11.333 -0.00305261 2.61283 -4.80941 -0.30014 -0.0109664 15.7252 -0.154007 -2.70738 -10.117 -0.336884 
160.297 99.8832 -477.947 0.0746895 0.111988 0.313449 0.0229879 0.0340018 -0.0288874 0.765839 0.77525 0.379079 0.248589 -0.03821 -0.233753 0.372027 0.307306 -0.0667876 0.150692 0.031284 0.0355582 -0.57378 0.314227 -0.997227 -0.151083 -0.0286178 -0.000122902 0.0867146 0.530349 -0.0147254 -0.376352 -4.24241 -0.182089 -0.0386141 16.3258 -0.047919 0.292995 -11.3291 -0.0127242 2.59334 -4.84546 -0.30837 -0.00955473 15.7106 -0.168311 -2.69965 -10.0939 -0.345073 
160.306 99.8829 -477.961 0.0865179 0.123644 0.329645 0.0239839 0.0353592 -0.0377679 0.860124 0.838988 0.443804 0.26682 -0.0415648 -0.230378 0.553584 0.294428 -0.0982472 0.183886 0.117621 -0.0368662 -0.66557 0.322336 -1.07043 -0.184555 -0.0386089 -1.37737e-005 0.0614861 0.548252 -0.021864 -0.390019 -4.48846 -0.191997 -0.0469742 16.5547 -0.0514533 0.280015 -11.3301 -0.0170548 2.57232 -4.86593 -0.311074 -0.00818064 15.7004 -0.175336 -2.69448 -10.0794 -0.349026 
160.314 99.8828 -477.972 0.0975551 0.123832 0.321613 0.0248674 0.0364204 -0.041289 0.931089 0.853276 0.513309 0.267768 -0.0423514 -0.206987 0.805445 0.278869 -0.108492 0.215366 0.198044 -0.126017 -0.718817 0.342498 -1.10698 -0.205472 -0.0468342 0.0117261 0.049984 0.601423 -0.00779952 -0.402688 -4.49089 -0.194929 -0.050192 16.5588 -0.0450527 0.265992 -11.3382 -0.0119762 2.5539 -4.87022 -0.306278 -0.00879937 15.6964 -0.172627 -2.69254 -10.0745 -0.346978 
160.317 99.8829 -477.979 0.104919 0.108655 0.291231 0.0257261 0.0371377 -0.0429985 0.973423 0.81557 0.574369 0.247127 -0.0392868 -0.178993 1.03676 0.228911 -0.11341 0.240098 0.276729 -0.190817 -0.737056 0.393593 -1.11777 -0.21046 -0.0509244 0.0562832 0.0644118 0.679066 0.0174786 -0.411101 -4.35834 -0.186746 -0.05121 16.4461 -0.0340298 0.250017 -11.3486 -0.00461389 2.54427 -4.84837 -0.295646 -0.0111918 15.6914 -0.160912 -2.69185 -10.0776 -0.339317 
160.317 99.8832 -477.983 0.105819 0.0822272 0.250683 0.0265537 0.0374634 -0.044335 1.0138 0.777662 0.6269 0.201917 -0.0320691 -0.142489 1.11512 0.172681 -0.136846 0.261085 0.339036 -0.208073 -0.727392 0.437565 -1.11564 -0.202322 -0.0492767 0.0588405 0.0970458 0.749194 0.0329049 -0.409575 -4.48693 -0.171554 -0.051565 16.6072 -0.0207584 0.237809 -11.3593 0.0017334 2.5456 -4.81849 -0.284773 -0.0142298 15.6984 -0.144087 -2.69302 -10.0884 -0.328621 
160.312 99.8836 -477.983 0.104087 0.0475578 0.213339 0.0273429 0.0373495 -0.0453047 1.06407 0.774087 0.663107 0.148889 -0.023905 -0.0915178 1.04861 0.150773 -0.16747 0.282914 0.37196 -0.179459 -0.697011 0.42589 -1.11285 -0.18422 -0.0427188 0.021668 0.125222 0.805742 0.0273034 -0.401859 -4.2686 -0.141347 -0.0503541 16.4313 -0.0179072 0.235984 -11.3704 0.0035917 2.55486 -4.78451 -0.273 -0.0156397 15.7167 -0.130448 -2.69807 -10.106 -0.320504 
160.302 99.884 -477.983 0.100973 0.00815132 0.181562 0.0280864 0.0367485 -0.0459137 1.11993 0.776192 0.693332 0.112333 -0.0189684 -0.0324936 0.974543 0.142632 -0.175353 0.30391 0.385107 -0.136035 -0.656574 0.398961 -1.12106 -0.154236 -0.0320559 9.05192e-005 0.151257 0.84402 0.00931351 -0.391226 -4.3986 -0.109113 -0.05058 16.6116 -0.0179143 0.253933 -11.3821 0.00480825 2.56515 -4.74781 -0.251584 -0.0121587 15.7417 -0.126778 -2.70966 -10.1289 -0.318898 
160.289 99.8801 -477.983 0.0984582 -0.0305159 0.156564 0.028777 0.0356124 -0.0461681 1.175 0.77848 0.729888 0.0947341 -0.0169742 0.000171577 0.966298 0.114985 -0.174125 0.312938 0.386414 -0.114292 -0.621118 0.405558 -1.14019 -0.109928 -0.017389 -0.000130873 0.181555 0.840476 -0.000773318 -0.381355 -4.17363 -0.0915577 -0.0492683 16.4378 -0.0137019 0.26478 -11.3956 0.00858903 2.57631 -4.71166 -0.228303 -0.00412252 15.7665 -0.127316 -2.72496 -10.1521 -0.320225 
160.273 99.8768 -477.982 0.0960911 -0.0601163 0.142257 0.0294074 0.0338934 -0.0460741 1.23153 0.775636 0.779037 0.0918872 -0.0176164 -0.000136246 0.963466 0.107199 -0.171885 0.300234 0.376643 -0.122216 -0.595074 0.406685 -1.17961 -0.0642756 -0.00305171 -0.000143256 0.195321 0.808582 -0.0141602 -0.370022 -4.20829 -0.0945563 -0.0482989 16.5148 -0.00389812 0.260712 -11.4101 0.0153484 2.58973 -4.69064 -0.218114 0.000716942 15.7941 -0.12975 -2.74054 -10.1723 -0.322573 
160.256 99.8737 -477.981 0.0931165 -0.0799244 0.137676 0.0299704 0.0315439 -0.0456378 1.28978 0.763842 0.832725 0.127989 -0.0232255 -3.11357e-005 0.888367 0.186955 -0.175719 0.297969 0.385618 -0.143533 -0.561715 0.358199 -1.23908 -0.0496588 0.0016027 -6.16637e-005 0.18109 0.868283 -0.0518937 -0.358661 -4.37592 -0.102832 -0.046904 16.7136 0.00348358 0.253559 -11.4233 0.0201776 2.60382 -4.67295 -0.21087 0.0019867 15.8109 -0.133646 -2.75523 -10.1884 -0.326323 
160.238 99.8716 -477.979 0.0886888 -0.0909446 0.131719 0.0304568 0.0259397 -0.0448655 1.33477 0.745586 0.894776 0.236939 -0.0336515 -0.0979149 0.839468 0.35633 -0.145169 0.325096 0.450514 -0.165428 -0.516432 0.303856 -1.28831 -0.0786542 -0.00687581 3.61112e-005 0.148488 1.12466 -0.0987455 -0.343934 -4.08224 -0.100567 -0.0449222 16.4371 0.0050099 0.244631 -11.4315 0.0216736 2.62271 -4.66598 -0.191519 0.00341898 15.8272 -0.143687 -2.76952 -10.2017 -0.334172 
160.221 99.8713 -477.978 0.0830157 -0.0995232 0.107882 0.0308598 0.0173908 -0.0437631 1.35681 0.722997 0.964164 0.406639 -0.0507546 -0.289178 0.972492 0.504846 -0.134202 0.372379 0.584803 -0.179041 -0.462094 0.318077 -1.28607 -0.12864 -0.0228906 7.22741e-005 0.102485 1.47817 -0.123067 -0.325061 -4.14537 -0.0868912 -0.0438 16.5074 0.0106558 0.234814 -11.4278 0.0247361 2.64439 -4.65555 -0.16352 0.00429984 15.8329 -0.147262 -2.78279 -10.2096 -0.337943 
160.207 99.8711 -477.978 0.0780502 -0.109586 0.0570094 0.0311747 0.00914771 -0.0409576 1.36389 0.688696 1.02307 0.554835 -0.0662052 -0.485895 1.26923 0.536517 -0.14534 0.405908 0.751636 -0.166538 -0.410606 0.417103 -1.21047 -0.160291 -0.0345802 -1.96613e-005 0.0548616 1.70148 -0.125049 -0.309659 -4.24986 -0.0619168 -0.0436089 16.6126 0.0260289 0.222837 -11.4217 0.0349657 2.66223 -4.6322 -0.137997 0.0039221 15.8252 -0.133921 -2.79454 -10.2143 -0.32936 
160.195 99.8711 -477.98 0.0764343 -0.126867 -0.00453136 0.0313977 0.00564293 -0.0346157 1.37456 0.639368 1.03854 0.609242 -0.0715501 -0.606102 1.48537 0.461118 -0.185364 0.418364 0.914917 -0.13867 -0.374098 0.536945 -1.0939 -0.164584 -0.0385796 0.0259954 0.0471746 1.73398 -0.0980976 -0.298248 -4.39769 -0.0316723 -0.040001 16.7678 0.0439798 0.209858 -11.4172 0.0477176 2.67313 -4.60395 -0.115181 0.0077322 15.8219 -0.113386 -2.80809 -10.2209 -0.315316 
160.184 99.8711 -477.987 0.0764599 -0.152917 -0.0562072 0.0315188 0.00303381 -0.0248768 1.39135 0.595249 1.00928 0.591314 -0.0675676 -0.642489 1.46186 0.386982 -0.223001 0.408281 1.04705 -0.0784094 -0.353457 0.62516 -0.980402 -0.168711 -0.0378751 0.0479736 0.0891369 1.71278 -0.079681 -0.29507 -3.96992 -0.00272822 -0.0318399 16.364 0.0560324 0.197272 -11.4173 0.0574433 2.67426 -4.57927 -0.11042 0.0156607 15.8347 -0.0888506 -2.82241 -10.2316 -0.298202 
160.173 99.871 -478 0.0779927 -0.18102 -0.0787024 0.0315311 0.00124859 -0.018224 1.40623 0.586178 0.955905 0.565402 -0.0617553 -0.647281 1.31206 0.354079 -0.231313 0.384433 1.12592 0.00930855 -0.345532 0.686032 -0.896923 -0.170815 -0.035064 0.0517494 0.134976 1.70861 -0.0708166 -0.293723 -3.91997 0.0133512 -0.0264067 16.3486 0.0595503 0.185799 -11.4258 0.0609775 2.67674 -4.56402 -0.110151 0.0177129 15.8589 -0.0777497 -2.83197 -10.2431 -0.291475 
